<svg xmlns="http://www.w3.org/2000/svg" xmlns:xlink="http://www.w3.org/1999/xlink" width="66" height="66" viewBox="0 0 66 66">
  <defs>
    <filter id="Ellipse_1" x="0" y="0" width="66" height="66" filterUnits="userSpaceOnUse">
      <feOffset input="SourceAlpha"/>
      <feGaussianBlur stdDeviation="5" result="blur"/>
      <feFlood flood-opacity="0.059"/>
      <feComposite operator="in" in2="blur"/>
      <feComposite in="SourceGraphic"/>
    </filter>
    <filter id="Ellipse_1-2" x="0" y="0" width="66" height="66" filterUnits="userSpaceOnUse">
      <feOffset input="SourceAlpha"/>
      <feGaussianBlur stdDeviation="5" result="blur-2"/>
      <feFlood flood-opacity="0.059"/>
      <feComposite operator="in" in2="blur-2"/>
      <feComposite in="SourceGraphic"/>
    </filter>
  </defs>
  <g id="Group_472" data-name="Group 472" transform="translate(-1693 -18)">
    <g transform="matrix(1, 0, 0, 1, 1693, 18)" filter="url(#Ellipse_1)">
      <circle id="Ellipse_1-3" data-name="Ellipse 1" cx="18" cy="18" r="18" transform="translate(15 15)" fill="#fff"/>
    </g>
    <path id="heart" d="M15.93,2.778a4.5,4.5,0,0,0-6.366,0l-.545.552-.541-.551,0,0a4.5,4.5,0,0,0-6.364,0l-.243.243a4.5,4.5,0,0,0,0,6.364L8.279,15.8,9,16.554l.017-.017.019.019.678-.716,6.456-6.455a4.505,4.505,0,0,0,0-6.364Zm-.553,5.811L9.02,14.947,2.663,8.589a3.375,3.375,0,0,1,0-4.773l.243-.243a3.375,3.375,0,0,1,4.771,0L9.016,4.935l1.346-1.362a3.375,3.375,0,0,1,4.773,0l.243.243a3.379,3.379,0,0,1,0,4.773Z" transform="translate(1717.451 42.541)"/>
    <text id="_1" data-name="1" transform="translate(1737 42)" fill="#fff" font-size="11" font-family="Poppins-Medium, Poppins" font-weight="500"><tspan x="0" y="0">1</tspan></text>
    <g transform="matrix(1, 0, 0, 1, 1693, 18)" filter="url(#Ellipse_1-2)">
      <circle id="Ellipse_1-4" data-name="Ellipse 1" cx="18" cy="18" r="18" transform="translate(15 15)" fill="#fff"/>
    </g>
    <path id="heart-2" data-name="heart" d="M15.93,2.778a4.5,4.5,0,0,0-6.366,0l-.545.552-.541-.551,0,0a4.5,4.5,0,0,0-6.364,0l-.243.243a4.5,4.5,0,0,0,0,6.364L8.279,15.8,9,16.554l.017-.017.019.019.678-.716,6.456-6.455a4.505,4.505,0,0,0,0-6.364Zm-.553,5.811L9.02,14.947,2.663,8.589a3.375,3.375,0,0,1,0-4.773l.243-.243a3.375,3.375,0,0,1,4.771,0L9.016,4.935l1.346-1.362a3.375,3.375,0,0,1,4.773,0l.243.243a3.379,3.379,0,0,1,0,4.773Z" transform="translate(1717.451 42.541)"/>
  </g>
</svg>
